# xmcd
# 
# Track frame offsets:
#     150
#     21824
#     40592
#     63357
#     81107
#     101579
#     121373
#     136670
#     157717
#     175559
#     192005
#     210901
#     232657
#     253727
#     269069
#     289623
#     305741
# 
# Disc length: 4239
# 
# Revision: 1
# Processed by: cddbd v1.5.2PL0 Copyright (c) Steve Scherf et al.
# Submitted via: fre:ac v1.0.17
# 
DISCID=d4108d11
DTITLE=CLAUDIA KORECK - MENSCHSEIN
DYEAR=2011
DGENRE=
TTITLE0=AUTOFAHREN
TTITLE1=ALOHA
TTITLE2=ERWACHSEN
TTITLE3=MENSCHSEIN
TTITLE4=HUNGER
TTITLE5=ERSTER AUGENBLICK
TTITLE6=BEAUTIFUL (MIT DONAVON FRANKENREITER)
TTITLE7=PONTOS
TTITLE8=WENN I DI NED HÄTT
TTITLE9=SO NAH
TTITLE10=SOMMERLIAB
TTITLE11=ABSCHIED
TTITLE12=OMALIED
TTITLE13=BEAUTIFUL (BAYERISCHE VERSION)
TTITLE14=WENN ICH SO WÄR WIE DU (MIT ANNETT LOUISAN)
TTITLE15=HOAMKIMMST
TTITLE16=SOMMER IM DEZEMBER
EXTD=
EXTT0=
EXTT1=
EXTT2=
EXTT3=
EXTT4=
EXTT5=
EXTT6=
EXTT7=
EXTT8=
EXTT9=
EXTT10=
EXTT11=
EXTT12=
EXTT13=
EXTT14=
EXTT15=
EXTT16=
PLAYORDER=
